<svg width="220" height="64" fill="none" xmlns="http://www.w3.org/2000/svg"><g clip-path="url(#clip0_7565_11574)"><path d="M0 .028h220v63.778H0V.028z" fill="#0078E3"/><mask id="a" style="mask-type:luminance" maskUnits="userSpaceOnUse" x="0" y="0" width="220" height="64"><path d="M0 .028h220v63.778H0V.028z" fill="#fff"/></mask><g mask="url(#a)"><path d="M110.388 56.798c85.091 0 154.071-30.503 154.071-68.13 0-37.628-68.98-68.13-154.071-68.13-85.09 0-154.07 30.502-154.07 68.13 0 37.627 68.98 68.13 154.07 68.13z" fill="url(#paint0_radial_7565_11574)"/></g><mask id="b" style="mask-type:luminance" maskUnits="userSpaceOnUse" x="0" y="0" width="220" height="64"><path d="M0 .028h220v63.778H0V.028z" fill="#fff"/></mask><g mask="url(#b)"><path opacity=".9" d="M228.713 141.065c79.807 0 144.503-49.293 144.503-110.098S308.52-79.13 228.713-79.13C148.906-79.13 84.21-29.838 84.21 30.967c0 60.805 64.696 110.098 144.503 110.098z" fill="url(#paint1_radial_7565_11574)"/></g><path d="M161.449 31.083c0-8.485 6.766-15.076 15.208-15.076 8.441 0 15.266 6.59 15.266 15.076 0 8.482-6.825 15.077-15.266 15.077-8.443-.002-15.208-6.597-15.208-15.077zm25.443 0c0-5.793-4.452-10.203-10.237-10.203-5.723 0-10.177 4.41-10.177 10.203 0 5.788 4.454 10.203 10.177 10.203 5.785 0 10.237-4.415 10.237-10.203zm-56.626 0c0-8.485 6.476-15.076 15.208-15.076 5.724 0 10.581 2.977 12.781 7.51l-4.222 2.403c-1.448-3.039-4.684-5.042-8.559-5.042-5.782 0-10.177 4.41-10.177 10.204 0 5.732 4.395 10.142 10.177 10.142 3.934 0 7.111-2.002 8.732-4.984l4.28 2.464c-2.43 4.471-7.345 7.454-13.011 7.454-8.733 0-15.209-6.595-15.209-15.075zm-4.414 0c0 8.482-6.591 15.077-14.63 15.077-4.913 0-8.614-2.18-10.927-5.675v13.623h-5.03V16.749h5.03v4.934c2.314-3.5 6.014-5.675 10.927-5.675 8.039-.001 14.63 6.59 14.63 15.075zm-5.03 0c0-5.848-4.454-10.264-10.236-10.264-5.841 0-10.293 4.416-10.293 10.264 0 5.843 4.452 10.26 10.293 10.26 5.782 0 10.236-4.417 10.236-10.26zM75.529 41.46c3.99 0 6.881-1.835 8.327-4.187l4.28 2.41c-2.545 3.896-6.94 6.477-12.722 6.477-9.308 0-15.497-6.478-15.497-15.076 0-8.485 6.13-15.076 15.15-15.076 8.732 0 14.398 7.108 14.398 15.132 0 .746-.059 1.488-.174 2.236H65.063c.984 5.157 5.09 8.084 10.466 8.084zM65.063 29.02h19.313c-.867-5.675-4.972-8.313-9.308-8.313-5.436.002-9.195 3.325-10.005 8.313zm-9.56 2.064c0 8.482-6.59 15.077-14.63 15.077-4.912 0-8.614-2.18-10.927-5.675v13.623h-5.03v-37.36h5.03v4.934c2.315-3.5 6.015-5.675 10.927-5.675 8.04-.001 14.63 6.59 14.63 15.075zm-5.03 0c0-5.848-4.454-10.264-10.236-10.264-5.84 0-10.292 4.416-10.292 10.264 0 5.843 4.451 10.26 10.292 10.26 5.782 0 10.236-4.417 10.236-10.26zm146.604-11.111l3.347 3.318 3.347-3.318a2.29 2.29 0 00.682-1.635c0-1.275-1.047-2.313-2.334-2.313-.623 0-1.207.24-1.648.676l-.047.047-.047-.047a2.33 2.33 0 00-1.649-.676 2.326 2.326 0 00-2.333 2.313c0 .617.242 1.197.682 1.635zm1.651-2.722c.293 0 .568.113.774.318l.895.885.027.025.026-.025.894-.885a1.084 1.084 0 01.774-.318c.604 0 1.096.488 1.096 1.087 0 .29-.113.564-.321.768l-2.471 2.45-2.471-2.45a1.077 1.077 0 01-.321-.768 1.096 1.096 0 011.098-1.087z" fill="#fff"/><path d="M200.424 12.097a7.103 7.103 0 00-5.033 2.066 6.983 6.983 0 00-2.085 4.99 6.98 6.98 0 002.085 4.99 7.097 7.097 0 005.033 2.066 7.104 7.104 0 005.033-2.066 6.982 6.982 0 002.085-4.99 6.98 6.98 0 00-2.085-4.99 7.104 7.104 0 00-5.033-2.066zm4.13 11.152a5.829 5.829 0 01-4.13 1.697 5.826 5.826 0 01-4.131-1.697 5.73 5.73 0 01-1.711-4.095c0-1.547.607-3 1.711-4.095a5.83 5.83 0 014.131-1.696 5.82 5.82 0 014.13 1.697 5.726 5.726 0 011.712 4.094 5.726 5.726 0 01-1.712 4.095z" fill="#fff"/></g><defs><radialGradient id="paint0_radial_7565_11574" cx="0" cy="0" r="1" gradientUnits="userSpaceOnUse" gradientTransform="matrix(113.944 0 0 49.3344 110.39 -11.332)"><stop stop-color="#009EE2"/><stop offset=".539" stop-color="#008BE2" stop-opacity=".46"/><stop offset="1" stop-color="#0078E3" stop-opacity="0"/></radialGradient><radialGradient id="paint1_radial_7565_11574" cx="0" cy="0" r="1" gradientUnits="userSpaceOnUse" gradientTransform="matrix(106.871 0 0 95.7907 228.72 30.966)"><stop stop-color="#E30567"/><stop offset=".093" stop-color="#DB096C" stop-opacity=".907"/><stop offset=".237" stop-color="#C51478" stop-opacity=".763"/><stop offset=".413" stop-color="#A2268B" stop-opacity=".586"/><stop offset=".616" stop-color="#703FA6" stop-opacity=".384"/><stop offset=".837" stop-color="#325EC8" stop-opacity=".163"/><stop offset="1" stop-color="#0078E3" stop-opacity="0"/></radialGradient><clipPath id="clip0_7565_11574"><path fill="#fff" d="M0 0h220v63.834H0z"/></clipPath></defs></svg>